<?xml version="1.0" standalone="no"?>
<!DOCTYPE svg PUBLIC "-//W3C//DTD SVG 20010904//EN"
 "http://www.w3.org/TR/2001/REC-SVG-20010904/DTD/svg10.dtd">
<svg version="1.0" xmlns="http://www.w3.org/2000/svg"
 width="700.000000pt" height="700.000000pt" viewBox="0 0 700.000000 700.000000"
 preserveAspectRatio="xMidYMid meet">
<metadata>
Created by potrace 1.14, written by Peter Selinger 2001-2017
</metadata>
<g transform="translate(0.000000,700.000000) scale(0.100000,-0.100000)"
fill="#000000" stroke="none">
<path d="M520 6703 c-95 -30 -166 -91 -204 -172 l-21 -46 0 -1530 0 -1530 27
-51 c21 -39 354 -378 1429 -1453 1474 -1474 1466 -1467 1622 -1536 282 -124
582 -121 854 10 50 25 126 71 170 104 106 81 2065 2046 2125 2131 207 296 241
672 92 999 -74 160 -55 141 -1563 1649 l-1432 1432 -1542 -1 c-848 0 -1549 -3
-1557 -6z m4188 -1906 c730 -730 1337 -1343 1349 -1362 85 -130 85 -318 0
-451 -27 -43 -1944 -1964 -2020 -2025 -86 -69 -236 -99 -347 -69 -116 31 -83
0 -1480 1396 l-1335 1334 1 1252 c1 689 2 1253 3 1253 0 0 564 0 1251 0 l1250
0 1328 -1328z"/>
<path d="M1940 5232 c-67 -23 -154 -114 -174 -182 -38 -129 2 -252 108 -329
149 -106 357 -49 434 119 67 144 1 316 -146 386 -49 23 -164 26 -222 6z"/>
<path d="M3715 4946 c-47 -15 -92 -39 -120 -63 -23 -21 -907 -1199 -936 -1247
-37 -63 -41 -175 -9 -250 25 -60 78 -116 137 -146 47 -25 52 -25 379 -30 l331
-5 -273 -365 c-191 -254 -279 -380 -290 -414 -47 -140 18 -291 153 -357 92
-45 237 -24 312 44 13 12 232 300 487 639 335 446 466 629 475 660 11 39 14
121 6 158 -17 73 -81 153 -154 190 -47 25 -52 25 -380 30 l-331 5 44 60 c25
33 51 67 58 76 8 9 89 117 180 240 92 123 174 232 182 242 47 58 98 144 108
185 36 138 -45 291 -181 343 -43 16 -135 19 -178 5z"/>
</g>
</svg>
